<svg width="1512" height="4761" viewBox="0 0 1512 4761" fill="none" xmlns="http://www.w3.org/2000/svg">
<g opacity="0.25">
<path d="M424.783 199.684C431.013 199.684 436.064 194.633 436.064 188.403C436.064 182.173 431.013 177.122 424.783 177.122C418.553 177.122 413.502 182.173 413.502 188.403C413.502 194.633 418.553 199.684 424.783 199.684Z" fill="white" style="fill:white;fill-opacity:1;"/>
<path d="M143.28 270.563C149.51 270.563 154.561 265.512 154.561 259.282C154.561 253.051 149.51 248.001 143.28 248.001C137.05 248.001 132 253.051 132 259.282C132 265.512 137.05 270.563 143.28 270.563Z" fill="white" style="fill:white;fill-opacity:1;"/>
<path d="M199.279 767.557C205.509 767.557 210.56 762.506 210.56 756.275C210.56 750.045 205.509 744.994 199.279 744.994C193.049 744.994 187.999 750.045 187.999 756.275C187.999 762.506 193.049 767.557 199.279 767.557Z" fill="white" style="fill:white;fill-opacity:1;"/>
<path d="M234.92 1383.67C240.951 1385.23 247.107 1381.61 248.67 1375.58C250.232 1369.55 246.61 1363.39 240.579 1361.83C234.548 1360.27 228.392 1363.89 226.83 1369.92C225.267 1375.95 228.889 1382.11 234.92 1383.67Z" fill="white" style="fill:white;fill-opacity:1;"/>
<path d="M212.28 1642.56C218.511 1642.56 223.561 1637.51 223.561 1631.28C223.561 1625.05 218.511 1620 212.28 1620C206.05 1620 201 1625.05 201 1631.28C201 1637.51 206.05 1642.56 212.28 1642.56Z" fill="white" style="fill:white;fill-opacity:1;"/>
<path d="M343.92 2911.67C349.951 2913.23 356.107 2909.61 357.67 2903.58C359.232 2897.55 355.61 2891.39 349.579 2889.83C343.548 2888.27 337.392 2891.89 335.83 2897.92C334.267 2903.95 337.889 2910.11 343.92 2911.67Z" fill="white" style="fill:white;fill-opacity:1;"/>
<path d="M1361.38 3322.61C1362.64 3316.51 1358.71 3310.54 1352.61 3309.28C1346.51 3308.02 1340.54 3311.95 1339.28 3318.05C1338.02 3324.15 1341.95 3330.12 1348.05 3331.38C1354.15 3332.63 1360.12 3328.71 1361.38 3322.61Z" fill="white" style="fill:white;fill-opacity:1;"/>
<path d="M509.28 1531.56C515.51 1531.56 520.561 1526.51 520.561 1520.28C520.561 1514.05 515.51 1509 509.28 1509C503.05 1509 498 1514.05 498 1520.28C498 1526.51 503.05 1531.56 509.28 1531.56Z" fill="white" style="fill:white;fill-opacity:1;"/>
<path d="M790.92 2611.67C796.951 2613.23 803.107 2609.61 804.67 2603.58C806.232 2597.55 802.61 2591.39 796.579 2589.83C790.548 2588.27 784.392 2591.89 782.83 2597.92C781.267 2603.95 784.889 2610.11 790.92 2611.67Z" fill="white" style="fill:white;fill-opacity:1;"/>
<path d="M1370.02 2322.46C1371.28 2316.36 1367.36 2310.39 1361.25 2309.13C1355.15 2307.87 1349.18 2311.8 1347.93 2317.9C1346.67 2324 1350.59 2329.97 1356.69 2331.23C1362.8 2332.49 1368.76 2328.56 1370.02 2322.46Z" fill="white" style="fill:white;fill-opacity:1;"/>
<path d="M148.925 2332.67C154.956 2334.23 161.112 2330.61 162.675 2324.58C164.238 2318.55 160.616 2312.39 154.585 2310.83C148.554 2309.27 142.398 2312.89 140.835 2318.92C139.272 2324.95 142.894 2331.11 148.925 2332.67Z" fill="white" style="fill:white;fill-opacity:1;"/>
<path d="M754.377 2107.03C752.765 2101.01 746.579 2097.44 740.561 2099.05C734.543 2100.66 730.971 2106.85 732.584 2112.87C734.196 2118.89 740.382 2122.46 746.4 2120.84C752.418 2119.23 755.989 2113.05 754.377 2107.03Z" fill="white" style="fill:white;fill-opacity:1;"/>
<path d="M429.737 1954.46C423.807 1956.37 420.55 1962.73 422.461 1968.66C424.373 1974.59 430.729 1977.85 436.659 1975.94C442.589 1974.02 445.846 1967.67 443.934 1961.74C442.023 1955.81 435.666 1952.55 429.737 1954.46Z" fill="white" style="fill:white;fill-opacity:1;"/>
<path d="M1254.36 1767.57C1254.31 1761.34 1249.22 1756.33 1242.99 1756.38C1236.76 1756.43 1231.75 1761.52 1231.8 1767.75C1231.85 1773.98 1236.95 1778.99 1243.18 1778.94C1249.41 1778.89 1254.42 1773.8 1254.36 1767.57Z" fill="white" style="fill:white;fill-opacity:1;"/>
<path d="M1301.71 491.891C1300.1 485.873 1293.91 482.302 1287.9 483.914C1281.88 485.527 1278.31 491.712 1279.92 497.73C1281.53 503.748 1287.72 507.319 1293.73 505.707C1299.75 504.094 1303.32 497.909 1301.71 491.891Z" fill="white" style="fill:white;fill-opacity:1;"/>
<path d="M1390.25 1575.37C1390.2 1569.14 1385.11 1564.13 1378.88 1564.18C1372.65 1564.24 1367.64 1569.33 1367.69 1575.56C1367.74 1581.79 1372.84 1586.8 1379.07 1586.74C1385.3 1586.69 1390.3 1581.6 1390.25 1575.37Z" fill="white" style="fill:white;fill-opacity:1;"/>
<path d="M1231.71 199.892C1230.1 193.874 1223.91 190.303 1217.9 191.916C1211.88 193.528 1208.31 199.714 1209.92 205.732C1211.53 211.749 1217.72 215.321 1223.74 213.708C1229.75 212.096 1233.32 205.91 1231.71 199.892Z" fill="white" style="fill:white;fill-opacity:1;"/>
<path d="M603.711 389.892C602.099 383.874 595.913 380.303 589.895 381.915C583.877 383.528 580.305 389.714 581.918 395.731C583.53 401.749 589.716 405.32 595.734 403.708C601.752 402.095 605.324 395.91 603.711 389.892Z" fill="white" style="fill:white;fill-opacity:1;"/>
<path d="M1052.71 524.891C1051.1 518.873 1044.91 515.302 1038.9 516.914C1032.88 518.527 1029.31 524.712 1030.92 530.73C1032.53 536.748 1038.72 540.319 1044.73 538.707C1050.75 537.094 1054.32 530.909 1052.71 524.891Z" fill="white" style="fill:white;fill-opacity:1;"/>
<path d="M756.376 680.608C757.635 674.506 753.71 668.539 747.608 667.28C741.506 666.021 735.539 669.946 734.28 676.048C733.021 682.149 736.947 688.116 743.048 689.376C749.15 690.635 755.117 686.709 756.376 680.608Z" fill="white" style="fill:white;fill-opacity:1;"/>
</g>
</svg>
