<svg width="1512" height="1058" viewBox="0 0 1512 1058" fill="none" xmlns="http://www.w3.org/2000/svg">
<g filter="url(#filter0_f_2_128)">
<path fill-rule="evenodd" clip-rule="evenodd" d="M427.996 837.911C427.997 837.577 427.997 837.274 427.997 837H484.126C484.126 837.195 484.126 837.404 484.126 837.63C484.109 853.667 484.008 946.662 559.749 1013.71C600.164 1049.48 675.185 1085 761.495 1085C847.804 1085 922.826 1049.48 963.241 1013.71C1038.98 946.662 1038.88 853.667 1038.86 837.63C1038.86 837.404 1038.86 837.195 1038.86 837H1094.99C1094.99 837.274 1094.99 837.577 1094.99 837.911C1095.03 857.162 1095.24 974.761 999.039 1059.92C948.597 1104.57 860.927 1145 761.495 1145C662.063 1145 574.392 1104.57 523.95 1059.92C427.746 974.761 427.961 857.162 427.996 837.911Z" fill="#821F10" style="fill:#821F10;fill:color(display-p3 0.5098 0.1216 0.0627);fill-opacity:1;"/>
</g>
<g filter="url(#filter1_f_2_128)">
<path fill-rule="evenodd" clip-rule="evenodd" d="M427.996 837.911C427.997 837.577 427.997 837.274 427.997 837H484.126C484.126 837.195 484.126 837.404 484.126 837.63C484.109 853.667 484.008 946.662 559.749 1013.71C600.164 1049.48 675.185 1085 761.495 1085C847.804 1085 922.826 1049.48 963.241 1013.71C1038.98 946.662 1038.88 853.667 1038.86 837.63C1038.86 837.404 1038.86 837.195 1038.86 837H1094.99C1094.99 837.274 1094.99 837.577 1094.99 837.911C1095.03 857.162 1095.24 974.761 999.039 1059.92C948.597 1104.57 860.927 1145 761.495 1145C662.063 1145 574.392 1104.57 523.95 1059.92C427.746 974.761 427.961 857.162 427.996 837.911Z" fill="#EFA64B" style="fill:#EFA64B;fill:color(display-p3 0.9373 0.6510 0.2941);fill-opacity:1;"/>
</g>
<g filter="url(#filter2_f_2_128)">
<path fill-rule="evenodd" clip-rule="evenodd" d="M427.996 837.911C427.997 837.577 427.997 837.274 427.997 837H484.126C484.126 837.195 484.126 837.404 484.126 837.63C484.109 853.667 484.008 946.662 559.749 1013.71C600.164 1049.48 675.185 1085 761.495 1085C847.804 1085 922.826 1049.48 963.241 1013.71C1038.98 946.662 1038.88 853.667 1038.86 837.63C1038.86 837.404 1038.86 837.195 1038.86 837H1094.99C1094.99 837.274 1094.99 837.577 1094.99 837.911C1095.03 857.162 1095.24 974.761 999.039 1059.92C948.597 1104.57 860.927 1145 761.495 1145C662.063 1145 574.392 1104.57 523.95 1059.92C427.746 974.761 427.961 857.162 427.996 837.911Z" fill="#F3DC8E" style="fill:#F3DC8E;fill:color(display-p3 0.9529 0.8627 0.5569);fill-opacity:1;"/>
</g>
<g filter="url(#filter3_f_2_128)">
<path fill-rule="evenodd" clip-rule="evenodd" d="M427.996 837.911C427.997 837.577 427.997 837.274 427.997 837H484.126C484.126 837.195 484.126 837.404 484.126 837.63C484.109 853.667 484.008 946.662 559.749 1013.71C600.164 1049.48 675.185 1085 761.495 1085C847.804 1085 922.826 1049.48 963.241 1013.71C1038.98 946.662 1038.88 853.667 1038.86 837.63C1038.86 837.404 1038.86 837.195 1038.86 837H1094.99C1094.99 837.274 1094.99 837.577 1094.99 837.911C1095.03 857.162 1095.24 974.761 999.039 1059.92C948.597 1104.57 860.927 1145 761.495 1145C662.063 1145 574.392 1104.57 523.95 1059.92C427.746 974.761 427.961 857.162 427.996 837.911Z" fill="#FFFEFE" style="fill:#FFFEFE;fill:color(display-p3 1.0000 0.9961 0.9961);fill-opacity:1;"/>
</g>
<g filter="url(#filter4_f_2_128)">
<path fill-rule="evenodd" clip-rule="evenodd" d="M427.996 837.911C427.997 837.577 427.997 837.274 427.997 837H484.126C484.126 837.195 484.126 837.404 484.126 837.63C484.109 853.667 484.008 946.662 559.749 1013.71C600.164 1049.48 675.185 1085 761.495 1085C847.804 1085 922.826 1049.48 963.241 1013.71C1038.98 946.662 1038.88 853.667 1038.86 837.63C1038.86 837.404 1038.86 837.195 1038.86 837H1094.99C1094.99 837.274 1094.99 837.577 1094.99 837.911C1095.03 857.162 1095.24 974.761 999.039 1059.92C948.597 1104.57 860.927 1145 761.495 1145C662.063 1145 574.392 1104.57 523.95 1059.92C427.746 974.761 427.961 857.162 427.996 837.911Z" fill="white" style="fill:white;fill-opacity:1;"/>
</g>
<mask id="mask0_2_128" style="mask-type:alpha" maskUnits="userSpaceOnUse" x="-172" y="0" width="1844" height="1024">
<rect x="-172" width="1844" height="1024" fill="url(#paint0_linear_2_128)" style=""/>
</mask>
<g mask="url(#mask0_2_128)">
<g filter="url(#filter5_f_2_128)">
<path fill-rule="evenodd" clip-rule="evenodd" d="M761.995 454C909.192 454 976.628 521.672 1045.46 590.746C1081.12 626.528 1117.15 662.687 1164.84 690.009C1284.53 708.933 1370.27 736.09 1400.78 767.213C1401.13 767.446 1401.49 767.709 1401.86 768.003C1419.06 781.603 1417.7 818.837 1412.86 832.503H1410.27C1409.6 834.485 1408.84 836.408 1407.99 838.267C1404.52 845.938 1399.9 852.019 1395.37 856.682C1386.79 865.514 1376.82 871.007 1368.46 874.694C1351.74 882.07 1326.87 888.434 1288.25 894.112C1209.8 905.646 1058.3 916.5 761.745 916.5C465.192 916.5 313.687 905.646 235.236 894.112C196.618 888.434 171.749 882.07 155.028 874.694C146.668 871.007 136.701 865.514 128.119 856.682C123.588 852.019 118.973 845.938 115.495 838.267C114.652 836.408 113.889 834.485 113.219 832.503H110.5C105.682 818.88 104.309 781.838 121.337 768.133C151.158 736.507 237.946 708.913 359.526 689.794C407.029 662.497 442.966 626.435 478.529 590.746C547.362 521.672 614.797 454 761.995 454Z" fill="#821F10" style="fill:#821F10;fill:color(display-p3 0.5098 0.1216 0.0627);fill-opacity:1;"/>
</g>
</g>
<path d="M778.996 991.762C541.681 990.327 377.842 982.362 256.1 952.474C123.626 920.453 99.8298 820.883 108.628 788L272.822 850.215C335.384 859.863 553.88 870.114 811.003 871.313C1060.69 870.114 1186.62 859.863 1249.18 850.215L1413.37 788C1422.17 820.883 1398.37 920.453 1265.9 952.474C1144.5 982.278 1065.62 990.283 843.484 991.75V992C832.511 991.982 821.685 991.955 811.002 991.916C800.632 991.955 789.969 991.982 778.996 992V991.762Z" fill="black" style="fill:black;fill-opacity:1;"/>
<g filter="url(#filter6_f_2_128)">
<path fill-rule="evenodd" clip-rule="evenodd" d="M761.995 454C909.192 454 976.628 521.672 1045.46 590.746C1081.12 626.528 1117.15 662.687 1164.84 690.009C1284.53 708.933 1370.27 736.09 1400.78 767.213C1401.13 767.446 1401.49 767.709 1401.86 768.003C1419.06 781.603 1417.7 818.837 1412.86 832.503H1410.27C1409.6 834.485 1408.84 836.408 1407.99 838.267C1404.52 845.938 1399.9 852.019 1395.37 856.682C1386.79 865.514 1376.82 871.007 1368.46 874.694C1351.74 882.07 1326.87 888.434 1288.25 894.112C1209.8 905.646 1058.3 916.5 761.745 916.5C465.192 916.5 313.687 905.646 235.236 894.112C196.618 888.434 171.749 882.07 155.028 874.694C146.668 871.007 136.701 865.514 128.119 856.682C123.588 852.019 118.973 845.938 115.495 838.267C114.652 836.408 113.889 834.485 113.219 832.503H110.5C105.682 818.88 104.309 781.839 121.337 768.133C151.157 736.507 237.945 708.913 359.526 689.794C407.029 662.497 442.966 626.435 478.529 590.746C547.362 521.672 614.797 454 761.995 454Z" fill="#EFA64B" style="fill:#EFA64B;fill:color(display-p3 0.9373 0.6510 0.2941);fill-opacity:1;"/>
</g>
<g filter="url(#filter7_f_2_128)">
<path fill-rule="evenodd" clip-rule="evenodd" d="M761.995 454C909.192 454 976.628 521.672 1045.46 590.746C1081.12 626.528 1117.15 662.687 1164.84 690.009C1284.53 708.933 1370.27 736.09 1400.78 767.213C1401.13 767.446 1401.49 767.709 1401.86 768.003C1419.06 781.603 1417.7 818.837 1412.86 832.503H1410.27C1409.6 834.485 1408.84 836.408 1407.99 838.267C1404.52 845.938 1399.9 852.019 1395.37 856.682C1386.79 865.514 1376.82 871.007 1368.46 874.694C1351.74 882.07 1326.87 888.434 1288.25 894.112C1209.8 905.646 1058.3 916.5 761.745 916.5C465.192 916.5 313.687 905.646 235.236 894.112C196.618 888.434 171.749 882.07 155.028 874.694C146.668 871.007 136.701 865.514 128.119 856.682C123.588 852.019 118.973 845.938 115.495 838.267C114.652 836.408 113.889 834.485 113.219 832.503H110.5C105.682 818.88 104.309 781.839 121.337 768.133C151.157 736.507 237.945 708.913 359.526 689.794C407.029 662.497 442.966 626.435 478.529 590.746C547.362 521.672 614.797 454 761.995 454Z" fill="#F3DC8E" style="fill:#F3DC8E;fill:color(display-p3 0.9529 0.8627 0.5569);fill-opacity:1;"/>
</g>
<g filter="url(#filter8_f_2_128)">
<path fill-rule="evenodd" clip-rule="evenodd" d="M761.995 454C909.192 454 976.628 521.672 1045.46 590.746C1081.12 626.528 1117.15 662.687 1164.84 690.009C1284.51 708.931 1370.25 736.084 1400.77 767.203C1401.12 767.438 1401.49 767.703 1401.86 768C1419.06 781.6 1417.7 818.833 1412.86 832.5H1410.27C1409.6 834.483 1408.84 836.407 1407.99 838.267C1404.52 845.938 1399.9 852.019 1395.37 856.682C1386.79 865.514 1376.82 871.007 1368.46 874.694C1351.74 882.07 1326.87 888.434 1288.25 894.112C1209.8 905.646 1058.3 916.5 761.745 916.5C465.192 916.5 313.687 905.646 235.236 894.112C196.618 888.434 171.749 882.07 155.028 874.694C146.668 871.007 136.701 865.514 128.119 856.682C123.588 852.019 118.973 845.938 115.495 838.267C114.651 836.407 113.888 834.483 113.218 832.5H110.5C105.681 818.873 104.308 781.816 121.35 768.119C151.183 736.499 237.963 708.91 359.526 689.794C407.029 662.497 442.966 626.435 478.529 590.746C547.362 521.672 614.797 454 761.995 454Z" fill="#FFFEFE" style="fill:#FFFEFE;fill:color(display-p3 1.0000 0.9961 0.9961);fill-opacity:1;"/>
</g>
<g filter="url(#filter9_f_2_128)">
<path fill-rule="evenodd" clip-rule="evenodd" d="M761.945 475.917C894.643 475.917 955.436 536.923 1017.49 599.193C1046.16 627.969 1075.11 657.015 1111.54 680.436C1260.26 697.604 1367.87 725.391 1401.72 757.888L1401.8 757.948L1401.86 758C1405.21 760.65 1407.86 764.197 1409.91 768.293C1410.69 769.739 1411.32 771.193 1411.81 772.655C1418.11 789.444 1416.43 812.404 1412.86 822.5H1412.74C1412.56 823.665 1412.34 824.827 1412.08 825.983C1411.13 830.319 1409.74 834.428 1407.99 838.267C1404.52 845.938 1399.9 852.018 1395.37 856.681C1386.79 865.514 1376.82 871.007 1368.46 874.694C1351.74 882.069 1326.87 888.434 1288.25 894.112C1209.8 905.646 1058.3 916.5 761.745 916.5C465.192 916.5 313.687 905.646 235.236 894.112C196.618 888.434 171.749 882.069 155.028 874.694C146.668 871.007 136.701 865.514 128.119 856.681C123.588 852.019 118.973 845.938 115.495 838.267C113.754 834.429 112.358 830.319 111.407 825.983C111.153 824.827 110.933 823.665 110.748 822.5H110.5C107.204 813.181 105.52 792.905 110.235 776.636C116.209 736.107 235.327 700.68 412.543 680.311C448.886 656.912 477.778 627.918 506.403 599.193C568.455 536.923 629.247 475.917 761.945 475.917ZM1383.38 813.047C1386.4 811.497 1389.2 809.919 1391.78 808.311C1391.94 809.942 1392.11 811.54 1392.28 813.092C1389.65 813.075 1386.7 813.06 1383.38 813.047ZM139.625 813.049C136.736 811.567 134.048 810.058 131.564 808.523C131.406 810.081 131.244 811.608 131.083 813.093C133.614 813.076 136.449 813.061 139.625 813.049Z" fill="white" style="fill:white;fill-opacity:1;"/>
</g>
<path fill-rule="evenodd" clip-rule="evenodd" d="M761.995 1093C926.897 1093 1060.83 960.394 1062.97 796H1077.34C1112.28 796 1112.71 780 1097.3 772C1081.96 764.032 1068.06 752.592 1053.17 715.448C1019.31 586.286 901.78 491 761.995 491C622.211 491 504.682 586.285 470.816 715.446C455.935 752.591 442.032 764.032 426.687 772C411.281 780 411.713 796 446.652 796H461.021C463.162 960.394 597.093 1093 761.995 1093Z" fill="black" style="fill:black;fill-opacity:1;"/>
<g filter="url(#filter10_f_2_128)">
<path d="M504.206 863C541.283 963.307 642.697 1024 761.995 1024C881.292 1024 982.707 963.307 1019.78 863H1008.98C972.219 957.172 875.511 1014 761.995 1014C648.478 1014 551.771 957.172 515.011 863H504.206Z" fill="#EFA64B" style="fill:#EFA64B;fill:color(display-p3 0.9373 0.6510 0.2941);fill-opacity:1;"/>
</g>
<g filter="url(#filter11_f_2_128)">
<path d="M504.206 863C541.283 963.307 642.697 1024 761.995 1024C881.292 1024 982.707 963.307 1019.78 863H1008.98C972.219 957.172 875.511 1014 761.995 1014C648.478 1014 551.771 957.172 515.011 863H504.206Z" fill="#F3DC8E" style="fill:#F3DC8E;fill:color(display-p3 0.9529 0.8627 0.5569);fill-opacity:1;"/>
</g>
<g filter="url(#filter12_f_2_128)">
<path d="M504.206 863C541.283 963.307 642.697 1024 761.995 1024C881.292 1024 982.707 963.307 1019.78 863H1008.98C972.219 957.172 875.511 1014 761.995 1014C648.478 1014 551.771 957.172 515.011 863H504.206Z" fill="#FFFEFE" style="fill:#FFFEFE;fill:color(display-p3 1.0000 0.9961 0.9961);fill-opacity:1;"/>
</g>
<path d="M504.206 863C541.283 963.307 642.697 1024 761.995 1024C881.292 1024 982.707 963.307 1019.78 863H1008.98C972.219 957.172 875.511 1014 761.995 1014C648.478 1014 551.771 957.172 515.011 863H504.206Z" fill="white" style="fill:white;fill-opacity:1;"/>
<mask id="mask1_2_128" style="mask-type:alpha" maskUnits="userSpaceOnUse" x="416" y="491" width="691" height="602">
<path fill-rule="evenodd" clip-rule="evenodd" d="M761.995 1093C926.897 1093 1060.83 960.394 1062.97 796H1077.34C1112.28 796 1112.71 780 1097.3 772C1081.96 764.032 1068.06 752.592 1053.17 715.448C1019.31 586.286 901.78 491 761.995 491C622.211 491 504.682 586.285 470.816 715.446C455.935 752.591 442.032 764.032 426.687 772C411.281 780 411.713 796 446.652 796H461.021C463.162 960.394 597.093 1093 761.995 1093Z" fill="black" style="fill:black;fill-opacity:1;"/>
</mask>
<g mask="url(#mask1_2_128)">
<g filter="url(#filter13_f_2_128)">
<path fill-rule="evenodd" clip-rule="evenodd" d="M427.996 837.911C427.997 837.577 427.998 837.274 427.998 837H484.126C484.126 837.195 484.126 837.404 484.126 837.63C484.109 853.667 484.008 946.662 559.749 1013.71C600.164 1049.48 675.185 1085 761.495 1085C847.804 1085 922.826 1049.48 963.241 1013.71C1038.98 946.662 1038.88 853.667 1038.86 837.63C1038.86 837.404 1038.86 837.195 1038.86 837H1094.99C1094.99 837.274 1094.99 837.577 1094.99 837.911C1095.03 857.162 1095.24 974.761 999.039 1059.92C948.597 1104.57 860.927 1145 761.495 1145C662.063 1145 574.392 1104.57 523.95 1059.92C427.746 974.761 427.961 857.162 427.996 837.911Z" fill="#821F10" style="fill:#821F10;fill:color(display-p3 0.5098 0.1216 0.0627);fill-opacity:1;"/>
</g>
<g filter="url(#filter14_f_2_128)">
<path fill-rule="evenodd" clip-rule="evenodd" d="M427.996 837.911C427.997 837.577 427.998 837.274 427.998 837H484.126C484.126 837.195 484.126 837.404 484.126 837.63C484.109 853.667 484.008 946.662 559.749 1013.71C600.164 1049.48 675.185 1085 761.495 1085C847.804 1085 922.826 1049.48 963.241 1013.71C1038.98 946.662 1038.88 853.667 1038.86 837.63C1038.86 837.404 1038.86 837.195 1038.86 837H1094.99C1094.99 837.274 1094.99 837.577 1094.99 837.911C1095.03 857.162 1095.24 974.761 999.039 1059.92C948.597 1104.57 860.927 1145 761.495 1145C662.063 1145 574.392 1104.57 523.95 1059.92C427.746 974.761 427.961 857.162 427.996 837.911Z" fill="#EFA64B" style="fill:#EFA64B;fill:color(display-p3 0.9373 0.6510 0.2941);fill-opacity:1;"/>
</g>
<g filter="url(#filter15_f_2_128)">
<path fill-rule="evenodd" clip-rule="evenodd" d="M427.996 837.911C427.997 837.577 427.998 837.274 427.998 837H484.126C484.126 837.195 484.126 837.404 484.126 837.63C484.109 853.667 484.008 946.662 559.749 1013.71C600.164 1049.48 675.185 1085 761.495 1085C847.804 1085 922.826 1049.48 963.241 1013.71C1038.98 946.662 1038.88 853.667 1038.86 837.63C1038.86 837.404 1038.86 837.195 1038.86 837H1094.99C1094.99 837.274 1094.99 837.577 1094.99 837.911C1095.03 857.162 1095.24 974.761 999.039 1059.92C948.597 1104.57 860.927 1145 761.495 1145C662.063 1145 574.392 1104.57 523.95 1059.92C427.746 974.761 427.961 857.162 427.996 837.911Z" fill="#F3DC8E" style="fill:#F3DC8E;fill:color(display-p3 0.9529 0.8627 0.5569);fill-opacity:1;"/>
</g>
<g filter="url(#filter16_f_2_128)">
<path fill-rule="evenodd" clip-rule="evenodd" d="M427.996 837.911C427.997 837.577 427.998 837.274 427.998 837H484.126C484.126 837.195 484.126 837.404 484.126 837.63C484.109 853.667 484.008 946.662 559.749 1013.71C600.164 1049.48 675.185 1085 761.495 1085C847.804 1085 922.826 1049.48 963.241 1013.71C1038.98 946.662 1038.88 853.667 1038.86 837.63C1038.86 837.404 1038.86 837.195 1038.86 837H1094.99C1094.99 837.274 1094.99 837.577 1094.99 837.911C1095.03 857.162 1095.24 974.761 999.039 1059.92C948.597 1104.57 860.927 1145 761.495 1145C662.063 1145 574.392 1104.57 523.95 1059.92C427.746 974.761 427.961 857.162 427.996 837.911Z" fill="#FFFEFE" style="fill:#FFFEFE;fill:color(display-p3 1.0000 0.9961 0.9961);fill-opacity:1;"/>
</g>
<g filter="url(#filter17_f_2_128)">
<path fill-rule="evenodd" clip-rule="evenodd" d="M427.996 837.911C427.997 837.577 427.998 837.274 427.998 837H484.126C484.126 837.195 484.126 837.404 484.126 837.63C484.109 853.667 484.008 946.662 559.749 1013.71C600.164 1049.48 675.185 1085 761.495 1085C847.804 1085 922.826 1049.48 963.241 1013.71C1038.98 946.662 1038.88 853.667 1038.86 837.63C1038.86 837.404 1038.86 837.195 1038.86 837H1094.99C1094.99 837.274 1094.99 837.577 1094.99 837.911C1095.03 857.162 1095.24 974.761 999.039 1059.92C948.597 1104.57 860.927 1145 761.495 1145C662.063 1145 574.392 1104.57 523.95 1059.92C427.746 974.761 427.961 857.162 427.996 837.911Z" fill="white" style="fill:white;fill-opacity:1;"/>
</g>
<path d="M779.996 991.762C542.681 990.327 378.842 982.362 257.1 952.474C124.626 920.453 100.83 820.883 109.628 788L273.822 850.215C336.384 859.863 554.88 870.114 812.003 871.313C1061.69 870.114 1187.62 859.863 1250.18 850.215L1414.37 788C1423.17 820.883 1399.37 920.453 1266.9 952.474C1145.5 982.278 1066.62 990.283 844.484 991.75V992C833.511 991.982 822.685 991.955 812.002 991.916C801.632 991.955 790.969 991.982 779.996 992V991.762Z" fill="black" style="fill:black;fill-opacity:1;"/>
</g>
<mask id="mask2_2_128" style="mask-type:alpha" maskUnits="userSpaceOnUse" x="416" y="491" width="691" height="410">
<path fill-rule="evenodd" clip-rule="evenodd" d="M855.074 886.274C974.184 891.726 1060.72 895.687 1062.95 796H1077.34C1112.28 796 1112.71 780 1097.3 772C1081.96 764.032 1068.06 752.592 1053.17 715.448C1019.31 586.286 901.78 491 761.995 491C622.211 491 504.682 586.285 470.816 715.446C455.935 752.591 442.032 764.032 426.687 772C411.281 780 411.713 796 446.652 796H461.021C462.619 914.924 536.079 905.916 640.804 893.074C677.882 888.527 718.88 883.5 761.995 883.5C794.48 883.5 825.764 884.932 855.074 886.274Z" fill="black" style="fill:black;fill-opacity:1;"/>
</mask>
<g mask="url(#mask2_2_128)">
<g filter="url(#filter18_f_2_128)">
<path fill-rule="evenodd" clip-rule="evenodd" d="M110 813.799C109.996 813.4 109.995 813 169.995 813C229.995 813 229.993 812.601 229.989 812.202C229.988 812.069 229.98 811.668 229.973 811.402C229.959 810.868 229.938 810.334 229.909 809.799C229.852 808.729 229.766 807.659 229.65 806.591C229.419 804.451 229.074 802.34 228.619 800.266C227.704 796.095 226.38 792.23 224.784 788.71C221.594 781.676 217.557 776.53 214.182 773.056C209.048 767.772 204.535 765.411 203.554 764.943C205.647 765.835 217.947 770.28 252.691 775.388C322.177 785.604 466.548 796.5 761.745 796.5C1056.94 796.5 1201.31 785.604 1270.8 775.388C1305.54 770.28 1317.84 765.836 1319.93 764.943C1318.95 765.411 1314.44 767.773 1309.31 773.057C1305.93 776.53 1301.89 781.676 1298.71 788.71C1297.11 792.23 1295.79 796.095 1294.87 800.266C1294.42 802.34 1294.07 804.451 1293.84 806.591C1293.72 807.659 1293.64 808.729 1293.58 809.799C1293.55 810.334 1293.53 810.868 1293.52 811.402C1293.51 811.669 1293.5 812.069 1293.5 812.202C1293.5 812.601 1293.49 813 1353.49 813C1413.49 813 1413.49 813.399 1413.49 813.799C1413.49 813.933 1413.48 814.334 1413.47 814.602C1413.46 815.138 1413.44 815.677 1413.41 816.217C1413.35 817.297 1413.26 818.383 1413.15 819.472C1412.91 821.653 1412.56 823.827 1412.08 825.983C1411.13 830.319 1409.74 834.429 1407.99 838.267C1404.52 845.938 1399.9 852.019 1395.37 856.682C1386.79 865.514 1376.82 871.007 1368.46 874.694C1351.74 882.07 1326.87 888.434 1288.25 894.112C1209.8 905.646 1058.3 916.5 761.745 916.5C465.192 916.5 313.688 905.646 235.236 894.112C196.618 888.434 171.749 882.07 155.028 874.694C146.668 871.007 136.701 865.514 128.119 856.682C123.588 852.019 118.973 845.938 115.495 838.267C113.754 834.429 112.358 830.319 111.407 825.984C110.934 823.827 110.579 821.653 110.344 819.472C110.226 818.383 110.139 817.298 110.081 816.217C110.052 815.677 110.03 815.138 110.016 814.602C110.01 814.334 110.002 813.933 110 813.799ZM1320.04 764.899C1320 764.913 1319.97 764.927 1319.93 764.943C1320.15 764.839 1320.2 764.829 1320.04 764.899ZM203.454 764.899C203.294 764.829 203.337 764.839 203.554 764.943C203.518 764.927 203.484 764.913 203.454 764.899Z" fill="#821F10" style="fill:#821F10;fill:color(display-p3 0.5098 0.1216 0.0627);fill-opacity:1;"/>
</g>
</g>
<mask id="mask3_2_128" style="mask-type:alpha" maskUnits="userSpaceOnUse" x="416" y="491" width="691" height="602">
<path fill-rule="evenodd" clip-rule="evenodd" d="M761.995 1093C926.897 1093 1060.83 960.394 1062.97 796H1077.34C1112.28 796 1112.71 780 1097.3 772C1081.96 764.032 1068.06 752.592 1053.17 715.448C1019.31 586.286 901.78 491 761.995 491C622.211 491 504.682 586.285 470.816 715.446C455.935 752.591 442.032 764.032 426.687 772C411.281 780 411.713 796 446.652 796H461.021C463.162 960.394 597.093 1093 761.995 1093Z" fill="black" style="fill:black;fill-opacity:1;"/>
</mask>
<g mask="url(#mask3_2_128)">
<g filter="url(#filter19_f_2_128)">
<path fill-rule="evenodd" clip-rule="evenodd" d="M110 813.799C109.996 813.4 109.995 813 169.995 813C229.995 813 229.993 812.601 229.989 812.202C229.988 812.069 229.98 811.668 229.973 811.402C229.959 810.868 229.938 810.334 229.909 809.799C229.852 808.729 229.766 807.659 229.65 806.591C229.419 804.451 229.074 802.34 228.619 800.266C227.704 796.095 226.38 792.23 224.784 788.71C221.594 781.676 217.557 776.53 214.182 773.056C209.048 767.772 204.535 765.411 203.554 764.943C205.647 765.835 217.947 770.28 252.691 775.388C322.177 785.604 466.548 796.5 761.745 796.5C1056.94 796.5 1201.31 785.604 1270.8 775.388C1305.54 770.28 1317.84 765.836 1319.93 764.943C1318.95 765.411 1314.44 767.773 1309.31 773.057C1305.93 776.53 1301.89 781.676 1298.71 788.71C1297.11 792.23 1295.79 796.095 1294.87 800.266C1294.42 802.34 1294.07 804.451 1293.84 806.591C1293.72 807.659 1293.64 808.729 1293.58 809.799C1293.55 810.334 1293.53 810.868 1293.52 811.402C1293.51 811.669 1293.5 812.069 1293.5 812.202C1293.5 812.601 1293.49 813 1353.49 813C1413.49 813 1413.49 813.399 1413.49 813.799C1413.49 813.933 1413.48 814.334 1413.47 814.602C1413.46 815.138 1413.44 815.677 1413.41 816.217C1413.35 817.297 1413.26 818.383 1413.15 819.472C1412.91 821.653 1412.56 823.827 1412.08 825.983C1411.13 830.319 1409.74 834.429 1407.99 838.267C1404.52 845.938 1399.9 852.019 1395.37 856.682C1386.79 865.514 1376.82 871.007 1368.46 874.694C1351.74 882.07 1326.87 888.434 1288.25 894.112C1209.8 905.646 1058.3 916.5 761.745 916.5C465.192 916.5 313.688 905.646 235.236 894.112C196.618 888.434 171.749 882.07 155.028 874.694C146.668 871.007 136.701 865.514 128.119 856.682C123.588 852.019 118.973 845.938 115.495 838.267C113.754 834.429 112.358 830.319 111.407 825.984C110.934 823.827 110.579 821.653 110.344 819.472C110.226 818.383 110.139 817.298 110.081 816.217C110.052 815.677 110.03 815.138 110.016 814.602C110.01 814.334 110.002 813.933 110 813.799ZM1320.04 764.899C1320 764.913 1319.97 764.927 1319.93 764.943C1320.15 764.839 1320.2 764.829 1320.04 764.899ZM203.454 764.899C203.294 764.829 203.337 764.839 203.554 764.943C203.518 764.927 203.484 764.913 203.454 764.899Z" fill="#EFA64B" style="fill:#EFA64B;fill:color(display-p3 0.9373 0.6510 0.2941);fill-opacity:1;"/>
</g>
<g filter="url(#filter20_f_2_128)">
<path fill-rule="evenodd" clip-rule="evenodd" d="M110 813.799C109.996 813.4 109.995 813 169.995 813C229.995 813 229.993 812.601 229.989 812.202C229.988 812.069 229.98 811.668 229.973 811.402C229.959 810.868 229.938 810.334 229.909 809.799C229.852 808.729 229.766 807.659 229.65 806.591C229.419 804.451 229.074 802.34 228.619 800.266C227.704 796.095 226.38 792.23 224.784 788.71C221.594 781.676 217.557 776.53 214.182 773.056C209.048 767.772 204.535 765.411 203.554 764.943C205.647 765.835 217.947 770.28 252.691 775.388C322.177 785.604 466.548 796.5 761.745 796.5C1056.94 796.5 1201.31 785.604 1270.8 775.388C1305.54 770.28 1317.84 765.836 1319.93 764.943C1318.95 765.411 1314.44 767.773 1309.31 773.057C1305.93 776.53 1301.89 781.676 1298.71 788.71C1297.11 792.23 1295.79 796.095 1294.87 800.266C1294.42 802.34 1294.07 804.451 1293.84 806.591C1293.72 807.659 1293.64 808.729 1293.58 809.799C1293.55 810.334 1293.53 810.868 1293.52 811.402C1293.51 811.669 1293.5 812.069 1293.5 812.202C1293.5 812.601 1293.49 813 1353.49 813C1413.49 813 1413.49 813.399 1413.49 813.799C1413.49 813.933 1413.48 814.334 1413.47 814.602C1413.46 815.138 1413.44 815.677 1413.41 816.217C1413.35 817.297 1413.26 818.383 1413.15 819.472C1412.91 821.653 1412.56 823.827 1412.08 825.983C1411.13 830.319 1409.74 834.429 1407.99 838.267C1404.52 845.938 1399.9 852.019 1395.37 856.682C1386.79 865.514 1376.82 871.007 1368.46 874.694C1351.74 882.07 1326.87 888.434 1288.25 894.112C1209.8 905.646 1058.3 916.5 761.745 916.5C465.192 916.5 313.688 905.646 235.236 894.112C196.618 888.434 171.749 882.069 155.028 874.694C146.668 871.007 136.701 865.514 128.119 856.682C123.588 852.019 118.973 845.938 115.495 838.267C113.754 834.429 112.358 830.319 111.407 825.984C110.934 823.827 110.579 821.653 110.344 819.472C110.226 818.383 110.139 817.298 110.081 816.217C110.052 815.677 110.03 815.138 110.016 814.602C110.01 814.334 110.002 813.933 110 813.799ZM1320.04 764.899C1320 764.913 1319.97 764.927 1319.93 764.943C1320.15 764.839 1320.2 764.829 1320.04 764.899ZM203.454 764.899C203.294 764.829 203.337 764.839 203.554 764.943C203.518 764.927 203.484 764.913 203.454 764.899Z" fill="#F3DC8E" style="fill:#F3DC8E;fill:color(display-p3 0.9529 0.8627 0.5569);fill-opacity:1;"/>
<path d="M503.68 728.608C533.724 614.403 637.995 530.158 761.995 530.158C885.996 530.158 990.267 614.404 1020.31 728.61L1020.39 728.916L1020.51 729.21C1027.36 746.26 1034.12 757.741 1041.15 765.955C1048.25 774.246 1055.45 778.988 1062.79 782.786C1065.72 784.302 1067.46 785.99 1068.27 787.317C1068.99 788.524 1068.82 789.123 1068.64 789.487C1068.32 790.101 1067.15 791.493 1063.53 792.737C1059.98 793.955 1054.65 794.825 1047.08 794.825H1029.06L1029 799.837C1028.8 815.283 1027.28 828.576 1024.54 840H1035.17C1037.35 829.716 1038.67 818.098 1039.08 804.983H1047.08C1055.32 804.983 1061.87 804.05 1066.85 802.34C1071.75 800.655 1075.73 797.993 1077.72 794.101C1079.84 789.96 1079.13 785.603 1077 782.079C1074.94 778.676 1071.52 775.858 1067.48 773.771C1060.95 770.388 1054.92 766.387 1048.91 759.361C1042.86 752.301 1036.64 741.975 1030.09 725.724C998.792 607.319 890.631 520 761.995 520C633.36 520 525.199 607.319 493.903 725.722C487.346 741.974 481.13 752.3 475.084 759.361C469.068 766.387 463.042 770.388 456.507 773.771C452.473 775.858 449.046 778.676 446.991 782.079C444.863 785.603 444.153 789.96 446.272 794.101C448.263 797.993 452.237 800.655 457.139 802.34C462.115 804.05 468.673 804.983 476.905 804.983H484.91C485.316 818.098 486.64 829.716 488.818 840H499.449C496.715 828.576 495.193 815.283 494.991 799.837L494.925 794.825H476.905C469.343 794.825 464.007 793.955 460.461 792.737C456.841 791.493 455.666 790.101 455.352 789.487C455.165 789.123 454.995 788.524 455.723 787.317C456.525 785.99 458.273 784.302 461.204 782.786C468.542 778.988 475.737 774.246 482.836 765.955C489.871 757.741 496.628 746.259 503.481 729.209L503.6 728.914L503.68 728.608Z" fill="#F3DC8E" style="fill:#F3DC8E;fill:color(display-p3 0.9529 0.8627 0.5569);fill-opacity:1;"/>
</g>
<g filter="url(#filter21_f_2_128)">
<path fill-rule="evenodd" clip-rule="evenodd" d="M110 813.799C109.996 813.4 109.995 813 169.995 813C229.995 813 229.993 812.601 229.989 812.202C229.988 812.069 229.98 811.668 229.973 811.402C229.959 810.868 229.938 810.334 229.909 809.799C229.852 808.729 229.766 807.659 229.65 806.591C229.419 804.451 229.074 802.34 228.619 800.266C227.704 796.095 226.38 792.23 224.784 788.71C221.594 781.676 217.557 776.53 214.182 773.056C209.048 767.772 204.535 765.411 203.554 764.943C205.647 765.835 217.947 770.28 252.691 775.388C322.177 785.604 466.548 796.5 761.745 796.5C1056.94 796.5 1201.31 785.604 1270.8 775.388C1305.54 770.28 1317.84 765.836 1319.93 764.943C1318.95 765.411 1314.44 767.773 1309.31 773.057C1305.93 776.53 1301.89 781.676 1298.71 788.71C1297.11 792.23 1295.79 796.095 1294.87 800.266C1294.42 802.34 1294.07 804.451 1293.84 806.591C1293.72 807.659 1293.64 808.729 1293.58 809.799C1293.55 810.334 1293.53 810.868 1293.52 811.402C1293.51 811.669 1293.5 812.069 1293.5 812.202C1293.5 812.601 1293.49 813 1353.49 813C1413.49 813 1413.49 813.399 1413.49 813.799C1413.49 813.933 1413.48 814.334 1413.47 814.602C1413.46 815.138 1413.44 815.677 1413.41 816.217C1413.35 817.297 1413.26 818.383 1413.15 819.472C1412.91 821.653 1412.56 823.827 1412.08 825.983C1411.13 830.319 1409.74 834.429 1407.99 838.267C1404.52 845.938 1399.9 852.019 1395.37 856.682C1386.79 865.514 1376.82 871.007 1368.46 874.694C1351.74 882.07 1326.87 888.434 1288.25 894.112C1209.8 905.646 1058.3 916.5 761.745 916.5C465.192 916.5 313.688 905.646 235.236 894.112C196.618 888.434 171.749 882.069 155.028 874.694C146.668 871.007 136.701 865.514 128.119 856.682C123.588 852.019 118.973 845.938 115.495 838.267C113.754 834.429 112.358 830.319 111.407 825.984C110.934 823.827 110.579 821.653 110.344 819.472C110.226 818.383 110.139 817.298 110.081 816.217C110.052 815.677 110.03 815.138 110.016 814.602C110.01 814.334 110.002 813.933 110 813.799ZM1320.04 764.899C1320 764.913 1319.97 764.927 1319.93 764.943C1320.15 764.839 1320.2 764.829 1320.04 764.899ZM203.454 764.899C203.294 764.829 203.337 764.839 203.554 764.943C203.518 764.927 203.484 764.913 203.454 764.899Z" fill="#FFFEFE" style="fill:#FFFEFE;fill:color(display-p3 1.0000 0.9961 0.9961);fill-opacity:1;"/>
<path d="M503.68 728.608C533.724 614.403 637.995 530.158 761.995 530.158C885.996 530.158 990.267 614.404 1020.31 728.61L1020.39 728.916L1020.51 729.21C1027.36 746.26 1034.12 757.741 1041.15 765.955C1048.25 774.246 1055.45 778.988 1062.79 782.786C1065.72 784.302 1067.46 785.99 1068.27 787.317C1068.99 788.524 1068.82 789.123 1068.64 789.487C1068.32 790.101 1067.15 791.493 1063.53 792.737C1059.98 793.955 1054.65 794.825 1047.08 794.825H1029.06L1029 799.837C1028.8 815.283 1027.28 828.576 1024.54 840H1035.17C1037.35 829.716 1038.67 818.098 1039.08 804.983H1047.08C1055.32 804.983 1061.87 804.05 1066.85 802.34C1071.75 800.655 1075.73 797.993 1077.72 794.101C1079.84 789.96 1079.13 785.603 1077 782.079C1074.94 778.676 1071.52 775.858 1067.48 773.771C1060.95 770.388 1054.92 766.387 1048.91 759.361C1042.86 752.301 1036.64 741.975 1030.09 725.724C998.792 607.319 890.631 520 761.995 520C633.36 520 525.199 607.319 493.903 725.722C487.346 741.974 481.13 752.3 475.084 759.361C469.068 766.387 463.042 770.388 456.507 773.771C452.473 775.858 449.046 778.676 446.991 782.079C444.863 785.603 444.153 789.96 446.272 794.101C448.263 797.993 452.237 800.655 457.139 802.34C462.115 804.05 468.673 804.983 476.905 804.983H484.91C485.316 818.098 486.64 829.716 488.818 840H499.449C496.715 828.576 495.193 815.283 494.991 799.837L494.925 794.825H476.905C469.343 794.825 464.007 793.955 460.461 792.737C456.841 791.493 455.666 790.101 455.352 789.487C455.165 789.123 454.995 788.524 455.723 787.317C456.525 785.99 458.273 784.302 461.204 782.786C468.542 778.988 475.737 774.246 482.836 765.955C489.871 757.741 496.628 746.259 503.481 729.209L503.6 728.914L503.68 728.608Z" fill="#FFFEFE" style="fill:#FFFEFE;fill:color(display-p3 1.0000 0.9961 0.9961);fill-opacity:1;"/>
</g>
<g filter="url(#filter22_f_2_128)">
<path fill-rule="evenodd" clip-rule="evenodd" d="M110 813.799C109.996 813.4 109.995 813 169.995 813C229.995 813 229.993 812.601 229.989 812.202C229.988 812.069 229.98 811.668 229.973 811.402C229.959 810.868 229.938 810.334 229.909 809.799C229.852 808.729 229.766 807.659 229.65 806.591C229.419 804.451 229.074 802.34 228.619 800.266C227.704 796.095 226.38 792.23 224.784 788.71C221.594 781.676 217.557 776.53 214.182 773.056C209.048 767.772 204.535 765.411 203.554 764.943C205.647 765.835 217.947 770.28 252.691 775.388C322.177 785.604 466.548 796.5 761.745 796.5C1056.94 796.5 1201.31 785.604 1270.8 775.388C1305.54 770.28 1317.84 765.836 1319.93 764.943C1318.95 765.411 1314.44 767.773 1309.31 773.057C1305.93 776.53 1301.89 781.676 1298.71 788.71C1297.11 792.23 1295.79 796.095 1294.87 800.266C1294.42 802.34 1294.07 804.451 1293.84 806.591C1293.72 807.659 1293.64 808.729 1293.58 809.799C1293.55 810.334 1293.53 810.868 1293.52 811.402C1293.51 811.669 1293.5 812.069 1293.5 812.202C1293.5 812.601 1293.49 813 1353.49 813C1413.49 813 1413.49 813.399 1413.49 813.799C1413.49 813.933 1413.48 814.334 1413.47 814.602C1413.46 815.138 1413.44 815.677 1413.41 816.217C1413.35 817.297 1413.26 818.383 1413.15 819.472C1412.91 821.653 1412.56 823.827 1412.08 825.983C1411.13 830.319 1409.74 834.429 1407.99 838.267C1404.52 845.938 1399.9 852.019 1395.37 856.682C1386.79 865.514 1376.82 871.007 1368.46 874.694C1351.74 882.07 1326.87 888.434 1288.25 894.112C1209.8 905.646 1058.3 916.5 761.745 916.5C465.192 916.5 313.688 905.646 235.236 894.112C196.618 888.434 171.749 882.069 155.028 874.694C146.668 871.007 136.701 865.514 128.119 856.682C123.588 852.019 118.973 845.938 115.495 838.267C113.754 834.429 112.358 830.319 111.407 825.984C110.934 823.827 110.579 821.653 110.344 819.472C110.226 818.383 110.139 817.298 110.081 816.217C110.052 815.677 110.03 815.138 110.016 814.602C110.01 814.334 110.002 813.933 110 813.799ZM1320.04 764.899C1320 764.913 1319.97 764.927 1319.93 764.943C1320.15 764.839 1320.2 764.829 1320.04 764.899ZM203.454 764.899C203.294 764.829 203.337 764.839 203.554 764.943C203.518 764.927 203.484 764.913 203.454 764.899Z" fill="white" style="fill:white;fill-opacity:1;"/>
<path d="M503.68 728.608C533.724 614.403 637.995 530.158 761.995 530.158C885.996 530.158 990.267 614.404 1020.31 728.61L1020.39 728.916L1020.51 729.21C1027.36 746.26 1034.12 757.741 1041.15 765.955C1048.25 774.246 1055.45 778.988 1062.79 782.786C1065.72 784.302 1067.46 785.99 1068.27 787.317C1068.99 788.524 1068.82 789.123 1068.64 789.487C1068.32 790.101 1067.15 791.493 1063.53 792.737C1059.98 793.955 1054.65 794.825 1047.08 794.825H1029.06L1029 799.837C1028.8 815.283 1027.28 828.576 1024.54 840H1035.17C1037.35 829.716 1038.67 818.098 1039.08 804.983H1047.08C1055.32 804.983 1061.87 804.05 1066.85 802.34C1071.75 800.655 1075.73 797.993 1077.72 794.101C1079.84 789.96 1079.13 785.603 1077 782.079C1074.94 778.676 1071.52 775.858 1067.48 773.771C1060.95 770.388 1054.92 766.387 1048.91 759.361C1042.86 752.301 1036.64 741.975 1030.09 725.724C998.792 607.319 890.631 520 761.995 520C633.36 520 525.199 607.319 493.903 725.722C487.346 741.974 481.13 752.3 475.084 759.361C469.068 766.387 463.042 770.388 456.507 773.771C452.473 775.858 449.046 778.676 446.991 782.079C444.863 785.603 444.153 789.96 446.272 794.101C448.263 797.993 452.237 800.655 457.139 802.34C462.115 804.05 468.673 804.983 476.905 804.983H484.91C485.316 818.098 486.64 829.716 488.818 840H499.449C496.715 828.576 495.193 815.283 494.991 799.837L494.925 794.825H476.905C469.343 794.825 464.007 793.955 460.461 792.737C456.841 791.493 455.666 790.101 455.352 789.487C455.165 789.123 454.995 788.524 455.723 787.317C456.525 785.99 458.273 784.302 461.204 782.786C468.542 778.988 475.737 774.246 482.836 765.955C489.871 757.741 496.628 746.259 503.481 729.209L503.6 728.914L503.68 728.608Z" fill="white" style="fill:white;fill-opacity:1;"/>
</g>
</g>
<path d="M503.68 728.608C533.724 614.403 637.995 530.158 761.995 530.158C885.996 530.158 990.267 614.404 1020.31 728.61L1020.39 728.916L1020.51 729.21C1027.36 746.26 1034.12 757.741 1041.15 765.955C1048.25 774.246 1055.45 778.988 1062.79 782.786C1065.72 784.302 1067.46 785.99 1068.27 787.317C1068.99 788.524 1068.82 789.123 1068.64 789.487C1068.32 790.101 1067.15 791.493 1063.53 792.737C1059.98 793.955 1054.65 794.825 1047.08 794.825H1029.06L1029 799.837C1028.8 815.283 1027.28 828.576 1024.54 840H1035.17C1037.35 829.716 1038.67 818.098 1039.08 804.983H1047.08C1055.32 804.983 1061.87 804.05 1066.85 802.34C1071.75 800.655 1075.73 797.993 1077.72 794.101C1079.84 789.96 1079.13 785.603 1077 782.079C1074.94 778.676 1071.52 775.858 1067.48 773.771C1060.95 770.388 1054.92 766.387 1048.91 759.361C1042.86 752.301 1036.64 741.975 1030.09 725.724C998.792 607.319 890.631 520 761.995 520C633.36 520 525.199 607.319 493.903 725.722C487.346 741.974 481.13 752.3 475.084 759.361C469.068 766.387 463.042 770.388 456.507 773.771C452.473 775.858 449.046 778.676 446.991 782.079C444.863 785.603 444.153 789.96 446.272 794.101C448.263 797.993 452.237 800.655 457.139 802.34C462.115 804.05 468.673 804.983 476.905 804.983H484.91C485.316 818.098 486.64 829.716 488.818 840H499.449C496.715 828.576 495.193 815.283 494.991 799.837L494.925 794.825H476.905C469.343 794.825 464.007 793.955 460.461 792.737C456.841 791.493 455.666 790.101 455.351 789.487C455.165 789.123 454.995 788.524 455.723 787.317C456.525 785.99 458.273 784.302 461.204 782.786C468.542 778.988 475.737 774.246 482.836 765.955C489.871 757.741 496.628 746.259 503.481 729.209L503.6 728.914L503.68 728.608Z" fill="white" style="fill:white;fill-opacity:1;"/>
<defs>
<filter id="filter0_f_2_128" x="127.995" y="537" width="1267" height="908" filterUnits="userSpaceOnUse" color-interpolation-filters="sRGB">
<feFlood flood-opacity="0" result="BackgroundImageFix"/>
<feBlend mode="normal" in="SourceGraphic" in2="BackgroundImageFix" result="shape"/>
<feGaussianBlur stdDeviation="150" result="effect1_foregroundBlur_2_128"/>
</filter>
<filter id="filter1_f_2_128" x="347.995" y="757" width="827" height="468" filterUnits="userSpaceOnUse" color-interpolation-filters="sRGB">
<feFlood flood-opacity="0" result="BackgroundImageFix"/>
<feBlend mode="normal" in="SourceGraphic" in2="BackgroundImageFix" result="shape"/>
<feGaussianBlur stdDeviation="40" result="effect1_foregroundBlur_2_128"/>
</filter>
<filter id="filter2_f_2_128" x="387.995" y="797" width="747" height="388" filterUnits="userSpaceOnUse" color-interpolation-filters="sRGB">
<feFlood flood-opacity="0" result="BackgroundImageFix"/>
<feBlend mode="normal" in="SourceGraphic" in2="BackgroundImageFix" result="shape"/>
<feGaussianBlur stdDeviation="20" result="effect1_foregroundBlur_2_128"/>
</filter>
<filter id="filter3_f_2_128" x="377.995" y="787" width="767" height="408" filterUnits="userSpaceOnUse" color-interpolation-filters="sRGB">
<feFlood flood-opacity="0" result="BackgroundImageFix"/>
<feBlend mode="normal" in="SourceGraphic" in2="BackgroundImageFix" result="shape"/>
<feGaussianBlur stdDeviation="25" result="effect1_foregroundBlur_2_128"/>
</filter>
<filter id="filter4_f_2_128" x="417.995" y="827" width="687" height="328" filterUnits="userSpaceOnUse" color-interpolation-filters="sRGB">
<feFlood flood-opacity="0" result="BackgroundImageFix"/>
<feBlend mode="normal" in="SourceGraphic" in2="BackgroundImageFix" result="shape"/>
<feGaussianBlur stdDeviation="5" result="effect1_foregroundBlur_2_128"/>
</filter>
<filter id="filter5_f_2_128" x="-192.68" y="154" width="1908.72" height="1062.5" filterUnits="userSpaceOnUse" color-interpolation-filters="sRGB">
<feFlood flood-opacity="0" result="BackgroundImageFix"/>
<feBlend mode="normal" in="SourceGraphic" in2="BackgroundImageFix" result="shape"/>
<feGaussianBlur stdDeviation="150" result="effect1_foregroundBlur_2_128"/>
</filter>
<filter id="filter6_f_2_128" x="27.3203" y="374" width="1468.72" height="622.5" filterUnits="userSpaceOnUse" color-interpolation-filters="sRGB">
<feFlood flood-opacity="0" result="BackgroundImageFix"/>
<feBlend mode="normal" in="SourceGraphic" in2="BackgroundImageFix" result="shape"/>
<feGaussianBlur stdDeviation="40" result="effect1_foregroundBlur_2_128"/>
</filter>
<filter id="filter7_f_2_128" x="67.3203" y="414" width="1388.72" height="542.5" filterUnits="userSpaceOnUse" color-interpolation-filters="sRGB">
<feFlood flood-opacity="0" result="BackgroundImageFix"/>
<feBlend mode="normal" in="SourceGraphic" in2="BackgroundImageFix" result="shape"/>
<feGaussianBlur stdDeviation="20" result="effect1_foregroundBlur_2_128"/>
</filter>
<filter id="filter8_f_2_128" x="57.3203" y="404" width="1408.72" height="562.5" filterUnits="userSpaceOnUse" color-interpolation-filters="sRGB">
<feFlood flood-opacity="0" result="BackgroundImageFix"/>
<feBlend mode="normal" in="SourceGraphic" in2="BackgroundImageFix" result="shape"/>
<feGaussianBlur stdDeviation="25" result="effect1_foregroundBlur_2_128"/>
</filter>
<filter id="filter9_f_2_128" x="97.3203" y="465.917" width="1328.72" height="460.583" filterUnits="userSpaceOnUse" color-interpolation-filters="sRGB">
<feFlood flood-opacity="0" result="BackgroundImageFix"/>
<feBlend mode="normal" in="SourceGraphic" in2="BackgroundImageFix" result="shape"/>
<feGaussianBlur stdDeviation="5" result="effect1_foregroundBlur_2_128"/>
</filter>
<filter id="filter10_f_2_128" x="464.206" y="823" width="595.578" height="241" filterUnits="userSpaceOnUse" color-interpolation-filters="sRGB">
<feFlood flood-opacity="0" result="BackgroundImageFix"/>
<feBlend mode="normal" in="SourceGraphic" in2="BackgroundImageFix" result="shape"/>
<feGaussianBlur stdDeviation="20" result="effect1_foregroundBlur_2_128"/>
</filter>
<filter id="filter11_f_2_128" x="474.206" y="833" width="575.578" height="221" filterUnits="userSpaceOnUse" color-interpolation-filters="sRGB">
<feFlood flood-opacity="0" result="BackgroundImageFix"/>
<feBlend mode="normal" in="SourceGraphic" in2="BackgroundImageFix" result="shape"/>
<feGaussianBlur stdDeviation="15" result="effect1_foregroundBlur_2_128"/>
</filter>
<filter id="filter12_f_2_128" x="484.206" y="843" width="555.578" height="201" filterUnits="userSpaceOnUse" color-interpolation-filters="sRGB">
<feFlood flood-opacity="0" result="BackgroundImageFix"/>
<feBlend mode="normal" in="SourceGraphic" in2="BackgroundImageFix" result="shape"/>
<feGaussianBlur stdDeviation="10" result="effect1_foregroundBlur_2_128"/>
</filter>
<filter id="filter13_f_2_128" x="127.995" y="537" width="1267" height="908" filterUnits="userSpaceOnUse" color-interpolation-filters="sRGB">
<feFlood flood-opacity="0" result="BackgroundImageFix"/>
<feBlend mode="normal" in="SourceGraphic" in2="BackgroundImageFix" result="shape"/>
<feGaussianBlur stdDeviation="150" result="effect1_foregroundBlur_2_128"/>
</filter>
<filter id="filter14_f_2_128" x="347.995" y="757" width="827" height="468" filterUnits="userSpaceOnUse" color-interpolation-filters="sRGB">
<feFlood flood-opacity="0" result="BackgroundImageFix"/>
<feBlend mode="normal" in="SourceGraphic" in2="BackgroundImageFix" result="shape"/>
<feGaussianBlur stdDeviation="40" result="effect1_foregroundBlur_2_128"/>
</filter>
<filter id="filter15_f_2_128" x="387.995" y="797" width="747" height="388" filterUnits="userSpaceOnUse" color-interpolation-filters="sRGB">
<feFlood flood-opacity="0" result="BackgroundImageFix"/>
<feBlend mode="normal" in="SourceGraphic" in2="BackgroundImageFix" result="shape"/>
<feGaussianBlur stdDeviation="20" result="effect1_foregroundBlur_2_128"/>
</filter>
<filter id="filter16_f_2_128" x="377.995" y="787" width="767" height="408" filterUnits="userSpaceOnUse" color-interpolation-filters="sRGB">
<feFlood flood-opacity="0" result="BackgroundImageFix"/>
<feBlend mode="normal" in="SourceGraphic" in2="BackgroundImageFix" result="shape"/>
<feGaussianBlur stdDeviation="25" result="effect1_foregroundBlur_2_128"/>
</filter>
<filter id="filter17_f_2_128" x="417.995" y="827" width="687" height="328" filterUnits="userSpaceOnUse" color-interpolation-filters="sRGB">
<feFlood flood-opacity="0" result="BackgroundImageFix"/>
<feBlend mode="normal" in="SourceGraphic" in2="BackgroundImageFix" result="shape"/>
<feGaussianBlur stdDeviation="5" result="effect1_foregroundBlur_2_128"/>
</filter>
<filter id="filter18_f_2_128" x="-190" y="464.854" width="1903.49" height="751.646" filterUnits="userSpaceOnUse" color-interpolation-filters="sRGB">
<feFlood flood-opacity="0" result="BackgroundImageFix"/>
<feBlend mode="normal" in="SourceGraphic" in2="BackgroundImageFix" result="shape"/>
<feGaussianBlur stdDeviation="150" result="effect1_foregroundBlur_2_128"/>
</filter>
<filter id="filter19_f_2_128" x="30" y="684.854" width="1463.49" height="311.646" filterUnits="userSpaceOnUse" color-interpolation-filters="sRGB">
<feFlood flood-opacity="0" result="BackgroundImageFix"/>
<feBlend mode="normal" in="SourceGraphic" in2="BackgroundImageFix" result="shape"/>
<feGaussianBlur stdDeviation="40" result="effect1_foregroundBlur_2_128"/>
</filter>
<filter id="filter20_f_2_128" x="70" y="480" width="1383.49" height="476.5" filterUnits="userSpaceOnUse" color-interpolation-filters="sRGB">
<feFlood flood-opacity="0" result="BackgroundImageFix"/>
<feBlend mode="normal" in="SourceGraphic" in2="BackgroundImageFix" result="shape"/>
<feGaussianBlur stdDeviation="20" result="effect1_foregroundBlur_2_128"/>
</filter>
<filter id="filter21_f_2_128" x="60" y="470" width="1403.49" height="496.5" filterUnits="userSpaceOnUse" color-interpolation-filters="sRGB">
<feFlood flood-opacity="0" result="BackgroundImageFix"/>
<feBlend mode="normal" in="SourceGraphic" in2="BackgroundImageFix" result="shape"/>
<feGaussianBlur stdDeviation="25" result="effect1_foregroundBlur_2_128"/>
</filter>
<filter id="filter22_f_2_128" x="100" y="510" width="1323.49" height="416.5" filterUnits="userSpaceOnUse" color-interpolation-filters="sRGB">
<feFlood flood-opacity="0" result="BackgroundImageFix"/>
<feBlend mode="normal" in="SourceGraphic" in2="BackgroundImageFix" result="shape"/>
<feGaussianBlur stdDeviation="5" result="effect1_foregroundBlur_2_128"/>
</filter>
<linearGradient id="paint0_linear_2_128" x1="750" y1="0" x2="750" y2="1024" gradientUnits="userSpaceOnUse">
<stop stop-color="white" style="stop-color:white;stop-opacity:1;"/>
<stop offset="0.695" stop-color="white" style="stop-color:white;stop-opacity:1;"/>
<stop offset="0.825" stop-color="white" stop-opacity="0" style="stop-color:none;stop-opacity:0;"/>
</linearGradient>
</defs>
</svg>
