<svg width="274" height="566" viewBox="0 0 274 566" fill="none" xmlns="http://www.w3.org/2000/svg">
<path d="M141.174 187.005C86.7475 233.242 40.9261 298.753 36.9885 371.792C33.2097 449.466 86.2077 518.566 145.557 565.946C23.2707 495.639 -35.5066 381.953 22.5085 245.086C39.6559 204.534 63.1223 167.063 92.7174 134.386L141.206 187.005H141.174Z" fill="url(#paint0_linear_2_121)" style=""/>
<path fill-rule="evenodd" clip-rule="evenodd" d="M229.309 135.287C288.824 53.9197 271.272 2.4096 271.272 2.4096C271.272 2.4096 219.747 -15.1185 138.403 44.375C119.102 39.5622 77.0048 35.7969 27.5574 72.7802C50.4516 73.1742 72.5389 82.9938 86.007 90.3909C78.6225 98.5039 73.408 106.792 69.8225 114.983L158.703 203.868C166.919 200.283 175.208 195.07 183.298 187.689C190.694 201.158 200.51 223.243 200.904 246.134C237.884 196.687 234.121 154.59 229.309 135.287Z" fill="url(#paint1_linear_2_121)" style=""/>
<path d="M192.775 103.647C205.332 103.647 215.511 93.4669 215.511 80.9096C215.511 68.3523 205.332 58.1726 192.775 58.1726C180.218 58.1726 170.039 68.3523 170.039 80.9096C170.039 93.4669 180.218 103.647 192.775 103.647Z" fill="white" style="fill:white;fill-opacity:1;"/>
<defs>
<linearGradient id="paint0_linear_2_121" x1="166.61" y1="737.236" x2="42.9166" y2="146.741" gradientUnits="userSpaceOnUse">
<stop offset="0.19" stop-color="white" stop-opacity="0" style="stop-color:none;stop-opacity:0;"/>
<stop offset="1" stop-color="white" style="stop-color:white;stop-opacity:1;"/>
</linearGradient>
<linearGradient id="paint1_linear_2_121" x1="2.97951" y1="-95.2707" x2="601.454" y2="702.662" gradientUnits="userSpaceOnUse">
<stop stop-color="#0E1065" style="stop-color:#0E1065;stop-color:color(display-p3 0.0564 0.0623 0.3946);stop-opacity:1;"/>
<stop offset="0.72" stop-color="#1199D6" style="stop-color:#1199D6;stop-color:color(display-p3 0.0679 0.6013 0.8379);stop-opacity:1;"/>
<stop offset="0.91" stop-color="#B6E4F8" style="stop-color:#B6E4F8;stop-color:color(display-p3 0.7137 0.8941 0.9725);stop-opacity:1;"/>
</linearGradient>
</defs>
</svg>
